<svg width="20" height="20" viewBox="0 0 20 20" fill="none" xmlns="http://www.w3.org/2000/svg">
<g clip-path="url(#clip0_2_213)">
<path d="M17.5 5H15C15 3.67392 14.4732 2.40215 13.5355 1.46447C12.5979 0.526784 11.3261 0 10 0C8.67392 0 7.40215 0.526784 6.46447 1.46447C5.52678 2.40215 5 3.67392 5 5H2.5C1.83696 5 1.20107 5.26339 0.732233 5.73223C0.263392 6.20107 0 6.83696 0 7.5L0 15.8333C0.00132321 16.938 0.440735 17.997 1.22185 18.7782C2.00296 19.5593 3.062 19.9987 4.16667 20H15.8333C16.938 19.9987 17.997 19.5593 18.7782 18.7782C19.5593 17.997 19.9987 16.938 20 15.8333V7.5C20 6.83696 19.7366 6.20107 19.2678 5.73223C18.7989 5.26339 18.163 5 17.5 5ZM10 1.66667C10.8841 1.66667 11.7319 2.01786 12.357 2.64298C12.9821 3.2681 13.3333 4.11594 13.3333 5H6.66667C6.66667 4.11594 7.01786 3.2681 7.64298 2.64298C8.2681 2.01786 9.11594 1.66667 10 1.66667ZM18.3333 15.8333C18.3333 16.4964 18.0699 17.1323 17.6011 17.6011C17.1323 18.0699 16.4964 18.3333 15.8333 18.3333H4.16667C3.50363 18.3333 2.86774 18.0699 2.3989 17.6011C1.93006 17.1323 1.66667 16.4964 1.66667 15.8333V7.5C1.66667 7.27899 1.75446 7.06702 1.91074 6.91074C2.06702 6.75446 2.27899 6.66667 2.5 6.66667H5V8.33333C5 8.55435 5.0878 8.76631 5.24408 8.92259C5.40036 9.07887 5.61232 9.16667 5.83333 9.16667C6.05435 9.16667 6.26631 9.07887 6.42259 8.92259C6.57887 8.76631 6.66667 8.55435 6.66667 8.33333V6.66667H13.3333V8.33333C13.3333 8.55435 13.4211 8.76631 13.5774 8.92259C13.7337 9.07887 13.9457 9.16667 14.1667 9.16667C14.3877 9.16667 14.5996 9.07887 14.7559 8.92259C14.9122 8.76631 15 8.55435 15 8.33333V6.66667H17.5C17.721 6.66667 17.933 6.75446 18.0893 6.91074C18.2455 7.06702 18.3333 7.27899 18.3333 7.5V15.8333Z" fill="black"/>
</g>
<defs>
<clipPath id="clip0_2_213">
<rect width="20" height="20" fill="white"/>
</clipPath>
</defs>
</svg>
