<svg width="20" height="20" viewBox="0 0 20 20" fill="none" xmlns="http://www.w3.org/2000/svg">
<path d="M0.833333 5.00001H19.1667C19.3877 5.00001 19.5996 4.91221 19.7559 4.75593C19.9122 4.59965 20 4.38769 20 4.16668C20 3.94566 19.9122 3.7337 19.7559 3.57742C19.5996 3.42114 19.3877 3.33334 19.1667 3.33334H0.833333C0.61232 3.33334 0.400358 3.42114 0.244078 3.57742C0.0877974 3.7337 0 3.94566 0 4.16668C0 4.38769 0.0877974 4.59965 0.244078 4.75593C0.400358 4.91221 0.61232 5.00001 0.833333 5.00001Z" fill="black"/>
<path d="M0.833333 9.16666H12.5C12.721 9.16666 12.933 9.07887 13.0893 8.92259C13.2455 8.76631 13.3333 8.55435 13.3333 8.33333C13.3333 8.11232 13.2455 7.90036 13.0893 7.74408C12.933 7.5878 12.721 7.5 12.5 7.5H0.833333C0.61232 7.5 0.400358 7.5878 0.244078 7.74408C0.0877974 7.90036 0 8.11232 0 8.33333C0 8.55435 0.0877974 8.76631 0.244078 8.92259C0.400358 9.07887 0.61232 9.16666 0.833333 9.16666Z" fill="black"/>
<path d="M12.5 15.8333H0.833333C0.61232 15.8333 0.400358 15.9211 0.244078 16.0774C0.0877974 16.2337 0 16.4456 0 16.6667C0 16.8877 0.0877974 17.0996 0.244078 17.2559C0.400358 17.4122 0.61232 17.5 0.833333 17.5H12.5C12.721 17.5 12.933 17.4122 13.0893 17.2559C13.2455 17.0996 13.3333 16.8877 13.3333 16.6667C13.3333 16.4456 13.2455 16.2337 13.0893 16.0774C12.933 15.9211 12.721 15.8333 12.5 15.8333Z" fill="black"/>
<path d="M19.1667 11.6667H0.833333C0.61232 11.6667 0.400358 11.7545 0.244078 11.9108C0.0877974 12.067 0 12.279 0 12.5C0 12.721 0.0877974 12.933 0.244078 13.0893C0.400358 13.2456 0.61232 13.3334 0.833333 13.3334H19.1667C19.3877 13.3334 19.5996 13.2456 19.7559 13.0893C19.9122 12.933 20 12.721 20 12.5C20 12.279 19.9122 12.067 19.7559 11.9108C19.5996 11.7545 19.3877 11.6667 19.1667 11.6667Z" fill="black"/>
</svg>
